<?xml version="1.0" encoding="UTF-8"?>
<svg width="241px" height="203px" viewBox="0 0 241 203" version="1.1" xmlns="http://www.w3.org/2000/svg" xmlns:xlink="http://www.w3.org/1999/xlink">
    <!-- Generator: Sketch 43.2 (39069) - http://www.bohemiancoding.com/sketch -->
    <title>Illustrator2</title>
    <desc>Created with Sketch.</desc>
    <defs>
        <rect id="path-1" x="0" y="0" width="320" height="210"></rect>
    </defs>
    <g id="Pages" stroke="none" stroke-width="1" fill="none" fill-rule="evenodd">
        <g id="Landing" transform="translate(-460.000000, -1262.000000)">
            <g id="Artifical-Intelligence-technologies-for-your-videos" transform="translate(0.000000, 1110.000000)">
                <g id="Illustrator2" transform="translate(460.000000, 152.000000)">
                    <mask id="mask-2" fill="white">
                        <use xlink:href="#path-1"></use>
                    </mask>
                    <g id="Mask" opacity="0.416893116"></g>
                    <g id="Group-13" mask="url(#mask-2)">
                        <g transform="translate(1.000000, 1.000000)">
                            <path d="M6.00020994,81.0507229 C6.00007007,81.0338318 6,81.0169241 6,81 C6,77.6862915 8.6862915,75 12,75 C12.7030689,75 13.3778941,75.1209262 14.004811,75.3431142 C14.0016108,75.2291332 14,75.1147547 14,75 C14,68.372583 19.372583,63 26,63 C27.4751231,63 28.8880801,63.2661651 30.193465,63.7530894 C31.2578406,57.6442379 36.5865604,53 43,53 C50.1797017,53 56,58.8202983 56,66 C56,66.0038987 55.9999983,66.007797 55.9999949,66.0116949 C60.6603959,66.2301756 64.5262768,69.4868771 65.6616453,73.8458072 C66.6539086,73.3064132 67.791171,73 69,73 C72.8659932,73 76,76.1340068 76,80 C76,83.8659932 72.8659932,87 69,87 L3.5,87 C1.56700338,87 0,85.4329966 0,83.5 C0,81.5670034 1.56700338,80 3.5,80 C4.47945197,80 5.36493656,80.4023222 6.00020994,81.0507229 Z" id="Combined-Shape" stroke="#AAAAAA" stroke-width="2" fill="#FFFFFF" fill-rule="evenodd" stroke-linecap="round" stroke-linejoin="round"></path>
                            <g id="Group-2-Copy" stroke="none" stroke-width="1" fill="none" fill-rule="evenodd" transform="translate(41.000000, 80.000000)">
                                <rect id="Rectangle-Copy" fill="#FFFFFF" x="0" y="0" width="150" height="90"></rect>
                                <path d="M0,81 L150.029997,81" id="Line" stroke="#AAAAAA" stroke-width="2" stroke-linecap="round" stroke-linejoin="round"></path>
                                <circle id="Oval" stroke="#000000" stroke-width="2" stroke-linecap="round" stroke-linejoin="round" cx="75" cy="41" r="16"></circle>
                                <path d="M10,79 L10,83" id="Line" stroke="#1AD0B7" stroke-width="2" stroke-linecap="round" stroke-linejoin="round"></path>
                                <path d="M20,79 L20,83" id="Line-Copy" stroke="#1AD0B7" stroke-width="2" stroke-linecap="round" stroke-linejoin="round"></path>
                                <polygon id="Triangle" stroke="#3B3B3B" stroke-width="2" fill="#FFFFFF" stroke-linecap="round" stroke-linejoin="round" points="83 41 71 48 71 34"></polygon>
                                <rect id="Rectangle" stroke="#3B3B3B" stroke-width="2" stroke-linecap="round" stroke-linejoin="round" x="0" y="0" width="150" height="90"></rect>
                            </g>
                            <circle id="Oval-2" stroke="#3B3B3B" stroke-width="2" fill="#FFFFFF" fill-rule="evenodd" stroke-linecap="round" stroke-linejoin="round" cx="191" cy="80" r="16"></circle>
                            <path d="M191.00004,85.6700961 L185.723132,88.4443305 C185.235745,88.7005649 184.917823,88.4582725 185.009181,87.9256149 L186.016981,82.049692 L181.747873,77.8883403 C181.353569,77.5039887 181.485759,77.1267544 182.020578,77.0490407 L187.92034,76.1917551 L190.558794,70.8456638 C190.802487,70.3518871 191.202107,70.3610359 191.441286,70.8456638 L194.079739,76.1917551 L199.979501,77.0490407 C200.524416,77.1282215 200.639205,77.51111 200.252206,77.8883403 L195.983098,82.049692 L196.990898,87.9256149 C197.083981,88.468328 196.755304,88.6958174 196.276947,88.4443305 L191.00004,85.6700961 Z" id="Star-Copy" stroke="none" fill="#1AD0B7" fill-rule="evenodd"></path>
                            <g id="Group-5" stroke="none" stroke-width="1" fill="none" fill-rule="evenodd" transform="translate(84.000000, 21.000000)" stroke-linecap="round" stroke-linejoin="round">
                                <polygon id="Combined-Shape" stroke="#3B3B3B" stroke-width="2" fill="#FFFFFF" points="12.6851751 28.371095 8 29.8564065 6.9437299 25.0562701 2.14359354 24 3.62890498 19.3148249 0 16 3.62890498 12.6851751 2.14359354 8 6.9437299 6.9437299 8 2.14359354 12.6851751 3.62890498 16 0 19.3148249 3.62890498 24 2.14359354 25.0562701 6.9437299 29.8564065 8 28.371095 12.6851751 32 16 28.371095 19.3148249 29.8564065 24 25.0562701 25.0562701 24 29.8564065 19.3148249 28.371095 16 32"></polygon>
                                <polyline id="Path-16" stroke="#1AD0B7" stroke-width="2" points="12 17.5 15 20.5 21 12"></polyline>
                            </g>
                            <path d="M100,63 L100,86" id="Line" stroke="#AAAAAA" stroke-width="2" fill="none" stroke-linecap="round" stroke-linejoin="round"></path>
                            <g id="Group-9" stroke="none" stroke-width="1" fill="none" fill-rule="evenodd" transform="translate(116.000000, 190.500000) scale(1, -1) translate(-116.000000, -190.500000) translate(69.000000, 180.000000)" stroke-linecap="round" stroke-linejoin="round">
                                <polygon id="Rectangle-4-Copy" stroke="#1AD0B7" stroke-width="2" fill="#FFFFFF" points="0 6 26 6 26 21 0 21 8 13"></polygon>
                                <polygon id="Rectangle-4-Copy-2" stroke="#1AD0B7" stroke-width="2" fill="#FFFFFF" transform="translate(81.000000, 13.500000) scale(-1, 1) translate(-81.000000, -13.500000) " points="68 6 94 6 94 21 68 21 76 13"></polygon>
                                <rect id="Rectangle-4" stroke="#1AD0B7" stroke-width="2" fill="#FFFFFF" x="20" y="0" width="54" height="15"></rect>
                                <polygon id="Rectangle-4-Copy-3" stroke="#1AD0B7" stroke-width="2" fill="#FFFFFF" transform="translate(23.000000, 18.000000) scale(1, -1) translate(-23.000000, -18.000000) " points="26 15 26 21 20 21"></polygon>
                                <polygon id="Rectangle-4-Copy-4" stroke="#1AD0B7" stroke-width="2" fill="#FFFFFF" transform="translate(71.000000, 18.000000) scale(-1, -1) translate(-71.000000, -18.000000) " points="74 15 74 21 68 21"></polygon>
                            </g>
                            <path d="M192,152.667637 C191.340255,152.77838 190.673427,152.862017 190,152.917691 L190,150 L192,150 L192,152.667637 Z" id="Combined-Shape" stroke="none" fill="#FFFFFF" fill-rule="nonzero"></path>
                            <path d="M207,140 C202.5,145.5 196,150 188,150 L185,150" id="Path-23" stroke="#1AD0B7" stroke-width="2" fill="none" stroke-linecap="round" stroke-linejoin="round"></path>
                            <polygon id="Path-22" stroke="#3B3B3B" stroke-width="2" fill="#FFFFFF" fill-rule="evenodd" stroke-linecap="round" stroke-linejoin="round" points="230 106 202 124 211 127 211 133 217 129 226 132"></polygon>
                            <path d="M215.5,122.5 L230,106" id="Line" stroke="#3B3B3B" stroke-width="2" fill="#FFFFFF" fill-rule="evenodd" stroke-linecap="round" stroke-linejoin="round"></path>
                            <g id="Group-3" stroke="none" stroke-width="1" fill="none" fill-rule="evenodd" transform="translate(10.000000, 98.000000)">
                                <polygon id="Rectangle-2" fill="#FFFFFF" points="9 5 13 9 9 13 5 9"></polygon>
                                <path d="M9,15 C9,11.6862915 6.3137085,9 3,9" id="Oval-4" stroke="#3B3B3B" stroke-width="2" stroke-linecap="round" stroke-linejoin="round"></path>
                                <path d="M15,9 C11.6862915,9 9,11.6862915 9,15" id="Oval-4-Copy" stroke="#3B3B3B" stroke-width="2" stroke-linecap="round" stroke-linejoin="round"></path>
                                <path d="M3,9 C6.3137085,9 9,6.3137085 9,3" id="Oval-4-Copy-3" stroke="#3B3B3B" stroke-width="2" stroke-linecap="round" stroke-linejoin="round"></path>
                                <path d="M9,3 C9,6.3137085 11.6862915,9 15,9 L15,9" id="Oval-4-Copy-2" stroke="#3B3B3B" stroke-width="2" stroke-linecap="round" stroke-linejoin="round"></path>
                                <path d="M15,9 L18,9" id="Line" stroke="#3B3B3B" stroke-width="2" stroke-linecap="round" stroke-linejoin="round"></path>
                                <path d="M0,9 L3,9" id="Line-Copy-2" stroke="#3B3B3B" stroke-width="2" stroke-linecap="round" stroke-linejoin="round"></path>
                                <path d="M9,15 L9,18" id="Line-Copy-10" stroke="#3B3B3B" stroke-width="2" stroke-linecap="round" stroke-linejoin="round"></path>
                                <path d="M9,3 L9,0" id="Line-Copy-3" stroke="#3B3B3B" stroke-width="2" stroke-linecap="round" stroke-linejoin="round"></path>
                            </g>
                            <g id="Group-3-Copy" stroke="none" stroke-width="1" fill="none" fill-rule="evenodd" transform="translate(141.000000, 0.000000)">
                                <polygon id="Rectangle-2" fill="#FFFFFF" points="12 6.66666667 17.3333333 12 12 17.3333333 6.66666667 12"></polygon>
                                <path d="M12,20 C12,15.581722 8.418278,12 4,12" id="Oval-4" stroke="#1AD0B7" stroke-width="2" stroke-linecap="round" stroke-linejoin="round"></path>
                                <path d="M20,12 C15.581722,12 12,15.581722 12,20" id="Oval-4-Copy" stroke="#1AD0B7" stroke-width="2" stroke-linecap="round" stroke-linejoin="round"></path>
                                <path d="M4,12 C8.418278,12 12,8.418278 12,4" id="Oval-4-Copy-3" stroke="#1AD0B7" stroke-width="2" stroke-linecap="round" stroke-linejoin="round"></path>
                                <path d="M12,4 C12,8.418278 15.581722,12 20,12 L20,12" id="Oval-4-Copy-2" stroke="#1AD0B7" stroke-width="2" stroke-linecap="round" stroke-linejoin="round"></path>
                                <path d="M20,12 L24,12" id="Line" stroke="#1AD0B7" stroke-width="2" stroke-linecap="round" stroke-linejoin="round"></path>
                                <path d="M0,12 L4,12" id="Line-Copy-2" stroke="#1AD0B7" stroke-width="2" stroke-linecap="round" stroke-linejoin="round"></path>
                                <path d="M12,20 L12,24" id="Line-Copy-10" stroke="#1AD0B7" stroke-width="2" stroke-linecap="round" stroke-linejoin="round"></path>
                                <path d="M12,4 L12,0" id="Line-Copy-3" stroke="#1AD0B7" stroke-width="2" stroke-linecap="round" stroke-linejoin="round"></path>
                            </g>
                            <g id="Group-2" stroke="none" stroke-width="1" fill="none" fill-rule="evenodd" transform="translate(223.000000, 148.000000)">
                                <polygon id="Rectangle-2" fill="#FFFFFF" points="8 3.42857143 12.5714286 8 8 12.5714286 3.42857143 8"></polygon>
                                <path d="M8,14.8571429 C8,11.0700474 4.92995257,8 1.14285714,8" id="Oval-4" stroke="#1AD0B7" stroke-width="2" stroke-linecap="round" stroke-linejoin="round"></path>
                                <path d="M14.8571429,8 C11.0700474,8 8,11.0700474 8,14.8571429" id="Oval-4-Copy" stroke="#1AD0B7" stroke-width="2" stroke-linecap="round" stroke-linejoin="round"></path>
                                <path d="M1.14285714,8 C4.92995257,8 8,4.92995257 8,1.14285714" id="Oval-4-Copy-3" stroke="#1AD0B7" stroke-width="2" stroke-linecap="round" stroke-linejoin="round"></path>
                                <path d="M8,1.14285714 C8,4.92995257 11.0700474,8 14.8571429,8 L14.8571429,8" id="Oval-4-Copy-2" stroke="#1AD0B7" stroke-width="2" stroke-linecap="round" stroke-linejoin="round"></path>
                                <path d="M14.8571429,8 L16,8" id="Line" stroke="#1AD0B7" stroke-width="2" stroke-linecap="round" stroke-linejoin="round"></path>
                                <path d="M0,8 L1.14285714,8" id="Line-Copy-2" stroke="#1AD0B7" stroke-width="2" stroke-linecap="round" stroke-linejoin="round"></path>
                                <path d="M8,14.8571429 L8,16" id="Line-Copy-10" stroke="#1AD0B7" stroke-width="2" stroke-linecap="round" stroke-linejoin="round"></path>
                                <path d="M8,1.14285714 L8,0" id="Line-Copy-3" stroke="#1AD0B7" stroke-width="2" stroke-linecap="round" stroke-linejoin="round"></path>
                            </g>
                            <g id="Group-4-Copy" stroke="none" stroke-width="1" fill="none" fill-rule="evenodd" transform="translate(129.000000, 45.000000)">
                                <polygon id="Rectangle-2" fill="#FFFFFF" points="5 3 7 5 5 7 3 5"></polygon>
                                <path d="M5,8 C5,6.34314575 3.65685425,5 2,5" id="Oval-4" stroke="#3B3B3B" stroke-width="2" stroke-linecap="round" stroke-linejoin="round"></path>
                                <path d="M8,5 C6.34314575,5 5,6.34314575 5,8" id="Oval-4-Copy" stroke="#3B3B3B" stroke-width="2" stroke-linecap="round" stroke-linejoin="round"></path>
                                <path d="M2,5 C3.65685425,5 5,3.65685425 5,2" id="Oval-4-Copy-3" stroke="#3B3B3B" stroke-width="2" stroke-linecap="round" stroke-linejoin="round"></path>
                                <path d="M0,5 L2,5" id="Line-Copy-2" stroke="#3B3B3B" stroke-width="2" stroke-linecap="round" stroke-linejoin="round"></path>
                                <path d="M8,5 L10,5" id="Line-Copy-21" stroke="#3B3B3B" stroke-width="2" stroke-linecap="round" stroke-linejoin="round"></path>
                                <path d="M5,8 L5,10" id="Line-Copy-22" stroke="#3B3B3B" stroke-width="2" stroke-linecap="round" stroke-linejoin="round"></path>
                                <path d="M5,0 L5,2" id="Line-Copy-28" stroke="#3B3B3B" stroke-width="2" stroke-linecap="round" stroke-linejoin="round"></path>
                                <path d="M5,2 C5,3.65685425 6.34314575,5 8,5" id="Oval-4-Copy-2" stroke="#3B3B3B" stroke-width="2" stroke-linecap="round" stroke-linejoin="round"></path>
                            </g>
                            <circle id="Oval-9" stroke="none" fill="#3B3B3B" fill-rule="evenodd" cx="141" cy="65" r="2"></circle>
                            <circle id="Oval-9-Copy-2" stroke="none" fill="#3B3B3B" fill-rule="evenodd" cx="28" cy="121" r="2"></circle>
                            <circle id="Oval-9-Copy" stroke="none" fill="#1AD0B7" fill-rule="evenodd" cx="165" cy="54" r="2"></circle>
                        </g>
                    </g>
                </g>
            </g>
        </g>
    </g>
</svg>