<?xml version="1.0" encoding="utf-8"?>
<!-- Generator: Adobe Illustrator 22.1.0, SVG Export Plug-In . SVG Version: 6.00 Build 0)  -->
<svg version="1.1" id="Layer_1" xmlns="http://www.w3.org/2000/svg" xmlns:xlink="http://www.w3.org/1999/xlink" x="0px" y="0px"
	 viewBox="0 0 150 100" style="enable-background:new 0 0 150 100;" xml:space="preserve">
<style type="text/css">
	.st0{fill:none;stroke:#808080;stroke-width:2;stroke-linecap:round;stroke-linejoin:round;}
	.st1{fill:none;stroke:#1AD0B7;stroke-width:2;stroke-linecap:round;stroke-linejoin:round;}
	.st2{fill:none;stroke:#FFFFFF;stroke-width:2;stroke-linecap:round;stroke-linejoin:round;}
	.st3{stroke:#808080;stroke-width:2;stroke-linecap:round;stroke-linejoin:round;}
	.st4{stroke:#000000;stroke-width:6;stroke-linecap:round;stroke-linejoin:round;}
	.st5{stroke:#FFFFFF;stroke-width:2;stroke-linecap:round;stroke-linejoin:round;}
</style>
<rect width="150" height="100"/>
<path class="st0" d="M59,36h32v32H59V36z"/>
<path class="st0" d="M59,36h32v36H59V36z"/>
<path class="st1" d="M65,56h4l7,6V42l-7,6h-4V56z"/>
<path class="st0" d="M100,40l8-4 M46,34l4,4L46,34z M37,74l12-7L37,74z M105,68l-5-2L105,68z"/>
<path class="st2" d="M80.1,54.1c0.5-0.5,0.9-1.3,0.9-2.1c0-0.8-0.3-1.6-0.9-2.1 M82.9,47.1c1.3,1.3,2.1,3,2.1,4.9s-0.8,3.7-2.1,4.9"
	/>
<path class="st3" d="M138,99c6.1,0,11-4.9,11-11s-4.9-11-11-11s-11,4.9-11,11S131.9,99,138,99z"/>
<path class="st0" d="M141,90h-6c-1.1,0-2,0.9-2,2s0.9,2,2,2h6c1.1,0,2-0.9,2-2S142.1,90,141,90z"/>
<path class="st0" d="M143,84l-2,2 M133,84l2,2L133,84z"/>
<path class="st3" d="M141,68c4.4,0,8-3.6,8-8s-3.6-8-8-8s-8,3.6-8,8S136.6,68,141,68z"/>
<path class="st0" d="M144,63.5c-0.5-1-1.5-1.5-3-1.5s-2.5,0.5-3,1.5 M138,57.1V59 M144,57v2"/>
<path class="st4" d="M123,86c6.1,0,11-4.9,11-11s-4.9-11-11-11s-11,4.9-11,11S116.9,86,123,86z"/>
<path class="st2" d="M123,86c6.1,0,11-4.9,11-11s-4.9-11-11-11s-11,4.9-11,11S116.9,86,123,86z"/>
<path class="st2" d="M127.6,78c-0.8,1.8-2.5,3-4.6,3s-3.8-1.2-4.6-3 M119,71v3 M127,71v3"/>
<path class="st0" d="M124,5h12 M109,15h31l9,6l-9,6h-31V15z M118,1h21l6,4l-6,4h-21V1z"/>
<path class="st2" d="M1,13h4.5L7,17l4-16l4,24l4-15l3,10l3-7h4 M116,21h12H116z M132,21h4H132z"/>
<path class="st0" d="M44,22.5c0,1.4-1.6,2.5-3.5,2.5S37,23.9,37,22.5s1.6-2.5,3.5-2.5S44,21.1,44,22.5z M44,22.5V5v1c0,3,6,5,6,9
	 M1,74v25"/>
<path class="st2" d="M1,70h11v14H1V70z"/>
<path class="st5" d="M12,74h11v14H12V74z"/>
</svg>
