<?xml version="1.0" encoding="utf-8"?>
<!-- Generator: Adobe Illustrator 22.1.0, SVG Export Plug-In . SVG Version: 6.00 Build 0)  -->
<svg version="1.1" id="Layer_1" xmlns="http://www.w3.org/2000/svg" xmlns:xlink="http://www.w3.org/1999/xlink" x="0px" y="0px"
	 viewBox="0 0 150 100" style="enable-background:new 0 0 150 100;" xml:space="preserve">
<style type="text/css">
	.st0{fill:none;stroke:#1AD0B7;stroke-width:2;stroke-linecap:round;stroke-linejoin:round;}
	.st1{fill:none;stroke:#808080;stroke-width:2;stroke-linecap:round;stroke-linejoin:round;}
	.st2{fill:none;stroke:#FFFFFF;stroke-width:2;stroke-linecap:round;stroke-linejoin:round;}
	.st3{fill:none;stroke:#000000;stroke-width:6;stroke-linecap:round;stroke-linejoin:round;}
	.st4{stroke:#1AD0B7;stroke-width:2;stroke-linecap:round;stroke-linejoin:round;}
	.st5{fill:none;stroke:#808080;stroke-width:2;stroke-linecap:round;stroke-linejoin:round;stroke-dasharray:4,4;}
	.st6{fill:#1AD0B7;}
</style>
<rect width="150" height="100"/>
<path class="st0" d="M99,4h-4v4 M129,4h4v4 M129,26h4v-4 M99,26h-4v-4"/>
<path class="st1" d="M31,36v4H7v-4c0-6.6,5.4-12,12-12S31,29.4,31,36z M19,24c4.4,0,8-3.6,8-8s-3.6-8-8-8s-8,3.6-8,8S14.6,24,19,24z
	 M65,36v4H41v-4c0-6.6,5.4-12,12-12S65,29.4,65,36z M53,24c4.4,0,8-3.6,8-8s-3.6-8-8-8s-8,3.6-8,8S48.6,24,53,24z"/>
<path class="st2" d="M48,88v4H24v-4c0-6.6,5.4-12,12-12S48,81.4,48,88z M36,76c4.4,0,8-3.6,8-8s-3.6-8-8-8s-8,3.6-8,8S31.6,76,36,76
	z"/>
<path class="st2" d="M126,36v4h-24v-4c0-6.6,5.4-12,12-12S126,29.4,126,36z M114,24c4.4,0,8-3.6,8-8s-3.6-8-8-8s-8,3.6-8,8
	S109.6,24,114,24z"/>
<path class="st3" d="M50,93.5l-4.1,2.2l0.8-4.6l-3.3-3.2l4.6-0.7L50,83l2.1,4.2l4.6,0.7l-3.3,3.2l0.8,4.6L50,93.5z"/>
<path class="st0" d="M50,93.5l-4.1,2.2l0.8-4.6l-3.3-3.2l4.6-0.7L50,83l2.1,4.2l4.6,0.7l-3.3,3.2l0.8,4.6L50,93.5z"/>
<path class="st1" d="M98,86h32 M98,76h32H98z M98,66h32H98z"/>
<path class="st4" d="M105,69c1.7,0,3-1.3,3-3s-1.3-3-3-3s-3,1.3-3,3S103.3,69,105,69z"/>
<path class="st4" d="M123,79c1.7,0,3-1.3,3-3s-1.3-3-3-3s-3,1.3-3,3S121.3,79,123,79z"/>
<path class="st4" d="M114,89c1.7,0,3-1.3,3-3s-1.3-3-3-3s-3,1.3-3,3S112.3,89,114,89z"/>
<path class="st5" d="M75,8v88"/>
<path class="st5" d="M1,50h148"/>
<path class="st1" d="M75,99v-3 M75,4V1V4z"/>
<path class="st0" d="M33,3.5C33,2,34,1,36,1s3,1,3,2.5c0,2.5-3,3-3,4V9"/>
<path class="st6" d="M36,13c0.6,0,1-0.4,1-1s-0.4-1-1-1s-1,0.4-1,1S35.4,13,36,13z"/>
</svg>
