<?xml version="1.0" encoding="utf-8"?>
<!-- Generator: Adobe Illustrator 22.1.0, SVG Export Plug-In . SVG Version: 6.00 Build 0)  -->
<svg version="1.1" id="Layer_1" xmlns="http://www.w3.org/2000/svg" xmlns:xlink="http://www.w3.org/1999/xlink" x="0px" y="0px"
	 viewBox="0 0 150 100" style="enable-background:new 0 0 150 100;" xml:space="preserve">
<style type="text/css">
	.st0{fill:none;stroke:#1AD0B7;stroke-width:2;stroke-linecap:round;stroke-linejoin:round;}
	.st1{fill:none;stroke:#FFFFFF;stroke-width:2;stroke-linecap:round;stroke-linejoin:round;}
</style>
<rect width="150" height="100"/>
<path class="st0" d="M76.2,72.7c6-6,9.7-14.2,9.7-23.3S82.2,32,76.2,26 M69.1,33.1c4.2,4.2,6.7,9.9,6.7,16.3s-2.6,12.1-6.7,16.3
	 M62.1,58.5c2.4-2.4,3.8-5.6,3.8-9.2c0-3.6-1.5-6.8-3.8-9.2 M55,47.2c0.5,0.5,0.9,1.3,0.9,2.1c0,0.8-0.3,1.6-0.9,2.1"/>
<path class="st1" d="M37,71v6H1v-6c0-9.9,8.1-18,18-18C28.9,53,37,61.1,37,71z M19,53c6.6,0,12-5.4,12-12s-5.4-12-12-12S7,34.4,7,41
	S12.4,53,19,53z"/>
<g>
	<path class="st1" d="M115,63h10 M105,21h34v10h10l-10-10l10,10v46h-44V21z M115,45h24H115z M115,51h15H115z M115,57h20H115z"/>
	<path class="st0" d="M115,35h17"/>
</g>
</svg>
