<?xml version="1.0" encoding="utf-8"?>
<!-- Generator: Adobe Illustrator 22.1.0, SVG Export Plug-In . SVG Version: 6.00 Build 0)  -->
<svg version="1.1" id="Layer_1" xmlns="http://www.w3.org/2000/svg" xmlns:xlink="http://www.w3.org/1999/xlink" x="0px" y="0px"
	 viewBox="0 0 150 100" style="enable-background:new 0 0 150 100;" xml:space="preserve">
<style type="text/css">
	.st0{fill:none;stroke:#808080;stroke-width:2;stroke-linecap:round;stroke-linejoin:round;}
	.st1{fill:none;stroke:#808080;stroke-width:2;stroke-linecap:round;stroke-linejoin:round;stroke-dasharray:4,4;}
	.st2{fill:none;stroke:#FFFFFF;stroke-width:2;stroke-linecap:round;stroke-linejoin:round;}
	.st3{fill:none;stroke:#1AD0B7;stroke-width:2;stroke-linecap:round;stroke-linejoin:round;}
	.st4{stroke:#000000;stroke-width:6;stroke-linecap:round;stroke-linejoin:round;}
</style>
<rect width="150" height="100"/>
<path class="st0" d="M149,99H1 M1,78h148H1z"/>
<path class="st1" d="M125,36v23 M25,42v16V42z"/>
<path class="st2" d="M80,82v13 M7,82v13V82z"/>
<path class="st0" d="M65,82v13"/>
<path class="st2" d="M43,82v13 M142,82v13V82z"/>
<path class="st3" d="M80,72v-1c0-2.2,1.8-4,4-4h36.9c1.3,0,2.6-0.7,3.3-1.8L125,64l0.8,1.2c0.7,1.1,2,1.8,3.3,1.8h8.9
	c2.2,0,4,1.8,4,4v1 M7,72v-1c0-2.2,1.8-4,4-4h9.9c1.3,0,2.6-0.7,3.3-1.8L25,64l0.8,1.2c0.7,1.1,2,1.8,3.3,1.8H39c2.2,0,4,1.8,4,4v1"
	/>
<path class="st0" d="M1,7h48v35H1V7z"/>
<path class="st2" d="M45,44L28,27l-6.7,6.3"/>
<path class="st2" d="M26,38L9,21l-8,8"/>
<path class="st2" d="M1,11h48v27H1V11z"/>
<path class="st2" d="M1,11h48v27H1V11z"/>
<path class="st2" d="M40,23c1.7,0,3-1.3,3-3s-1.3-3-3-3s-3,1.3-3,3S38.3,23,40,23z"/>
<path class="st0" d="M101,1h48v35h-48V1z"/>
<path class="st2" d="M101,5h48v27h-48V5z"/>
<path class="st2" d="M149,28c-1.3,0-2.4-0.8-2.8-2h-0.3c-0.4,1.2-1.5,2-2.8,2s-2.4-0.8-2.8-2H140c-0.4,1.2-1.5,2-2.8,2
	s-2.4-0.8-2.8-2h-0.3c-0.4,1.2-1.5,2-2.8,2s-2.4-0.8-2.8-2h-0.3c-0.4,1.2-1.5,2-2.8,2s-2.4-0.8-2.8-2h-0.3c-0.4,1.2-1.5,2-2.8,2
	s-2.4-0.8-2.8-2h-0.3c-0.4,1.2-1.5,2-2.8,2s-2.4-0.8-2.8-2h-0.3c-0.4,1.2-1.5,2-2.8,2s-2.4-0.8-2.8-2h-0.3c-0.4,1.2-1.5,2-2.8,2"/>
<path class="st2" d="M122,11l3,13l6-6L122,11z"/>
<path class="st4" d="M41,21h48v35H41V21z"/>
<path class="st0" d="M41,21h48v35H41V21z"/>
<path class="st0" d="M83,27L47,50 M47,27l36,23L47,27z"/>
<path class="st1" d="M65,56v16"/>
</svg>
