<?xml version="1.0" encoding="utf-8"?>
<!-- Generator: Adobe Illustrator 22.1.0, SVG Export Plug-In . SVG Version: 6.00 Build 0)  -->
<svg version="1.1" id="Layer_1" xmlns="http://www.w3.org/2000/svg" xmlns:xlink="http://www.w3.org/1999/xlink" x="0px" y="0px"
	 viewBox="0 0 150 100" style="enable-background:new 0 0 150 100;" xml:space="preserve">
<style type="text/css">
	.st0{fill:none;stroke:#1AD0B7;stroke-width:2;stroke-linecap:round;stroke-linejoin:round;}
	.st1{fill:none;stroke:#FFFFFF;stroke-width:2;stroke-linecap:round;stroke-linejoin:round;}
	.st2{fill:#1AD0B7;}
</style>
<rect width="150" height="100"/>
<path class="st0" d="M134,23V1h-22v22h11v3v-3H134z"/>
<path class="st0" d="M129,21v2h-12v-2c0-3.3,2.7-6,6-6S129,17.7,129,21z M123,15c2.2,0,4-1.8,4-4c0-2.2-1.8-4-4-4s-4,1.8-4,4
	C119,13.2,120.8,15,123,15z"/>
<path class="st1" d="M32,77v22H10V77h11v-3v3H32z"/>
<path class="st1" d="M27,97v2H15v-2c0-3.3,2.7-6,6-6S27,93.7,27,97z M21,91c2.2,0,4-1.8,4-4s-1.8-4-4-4s-4,1.8-4,4S18.8,91,21,91z"
	/>
<path class="st0" d="M15,47v6 M123,36v28V36z M111,44v12V44z M99,32v36V32z M87,14v71V14z M75,39v22V39z M63,43v14V43z M51,48v4V48z
	 M39,42v16V42z M27,44v12V44z"/>
<path class="st1" d="M141,49v2 M9,49v2V49z"/>
<path class="st0" d="M135,47v6"/>
<path class="st2" d="M148,50c0-0.6-0.4-1-1-1s-1,0.4-1,1s0.4,1,1,1S148,50.6,148,50z"/>
<path class="st1" d="M21,38v24 M129,48v4V48z M117,46v8V46z M105,47v6V47z M93,46v8V46z M81,48v4V48z M69,32v35V32z M57,21v58V21z
	 M45,34v32V34z M33,48v4V48z"/>
<path class="st2" d="M3,51c0.6,0,1-0.4,1-1s-0.4-1-1-1c-0.6,0-1,0.4-1,1S2.4,51,3,51z"/>
</svg>
